<svg xmlns="http://www.w3.org/2000/svg" width="27" height="17" fill="none" viewBox="0 0 27 17"><path fill="#fff" fill-rule="evenodd" d="M0.8125 8.50017C0.8125 8.25982 0.90798 8.02931 1.07793 7.85935C1.24789 7.6894 1.4784 7.59392 1.71875 7.59392H23.0936L17.3896 1.89179C17.2195 1.72162 17.1239 1.49082 17.1239 1.25017C17.1239 1.00951 17.2195 0.778713 17.3896 0.608543C17.5598 0.438373 17.7906 0.342773 18.0312 0.342773C18.2719 0.342773 18.5027 0.438373 18.6729 0.608543L25.9229 7.85854C26.0073 7.94273 26.0742 8.04273 26.1199 8.15283C26.1656 8.26293 26.1891 8.38096 26.1891 8.50017C26.1891 8.61937 26.1656 8.7374 26.1199 8.8475C26.0742 8.9576 26.0073 9.05761 25.9229 9.14179L18.6729 16.3918C18.5027 16.562 18.2719 16.6576 18.0312 16.6576C17.7906 16.6576 17.5598 16.562 17.3896 16.3918C17.2195 16.2216 17.1239 15.9908 17.1239 15.7502C17.1239 15.5095 17.2195 15.2787 17.3896 15.1085L23.0936 9.40642H1.71875C1.4784 9.40642 1.24789 9.31094 1.07793 9.14098C0.90798 8.97103 0.8125 8.74052 0.8125 8.50017Z" clip-rule="evenodd"/></svg>