<svg width="8" height="7" viewBox="0 0 8 7" fill="none" xmlns="http://www.w3.org/2000/svg">
<path fill-rule="evenodd" clip-rule="evenodd" d="M8.00089 3.49966C8.00089 3.63226 7.94822 3.75944 7.85445 3.85321C7.76068 3.94698 7.6335 3.99966 7.50089 3.99966H1.70789L3.85489 6.14566C3.90138 6.19214 3.93826 6.24733 3.96342 6.30807C3.98858 6.36881 4.00152 6.43391 4.00152 6.49966C4.00152 6.5654 3.98858 6.6305 3.96342 6.69124C3.93826 6.75198 3.90138 6.80717 3.85489 6.85366C3.80841 6.90014 3.75322 6.93702 3.69248 6.96218C3.63174 6.98734 3.56664 7.00029 3.50089 7.00029C3.43515 7.00029 3.37005 6.98734 3.30931 6.96218C3.24857 6.93702 3.19338 6.90014 3.14689 6.85366L0.146894 3.85366C0.100331 3.80721 0.0633875 3.75203 0.0381811 3.69129C0.0129746 3.63054 0 3.56542 0 3.49966C0 3.43389 0.0129746 3.36877 0.0381811 3.30802C0.0633875 3.24728 0.100331 3.1921 0.146894 3.14566L3.14689 0.145655C3.24078 0.0517685 3.36812 -0.000976562 3.50089 -0.000976562C3.63367 -0.000976562 3.76101 0.0517685 3.85489 0.145655C3.94878 0.239542 4.00152 0.366879 4.00152 0.499655C4.00152 0.632431 3.94878 0.759769 3.85489 0.853655L1.70789 2.99966H7.50089C7.6335 2.99966 7.76068 3.05233 7.85445 3.1461C7.94822 3.23987 8.00089 3.36705 8.00089 3.49966Z" fill="black"/>
</svg>
