<svg xmlns="http://www.w3.org/2000/svg" width="17" height="15" fill="none" viewBox="0 0 17 15"><path fill="#000" fill-rule="evenodd" d="M16.2498 7.50025C16.2498 7.75718 16.1477 8.00358 15.966 8.18526C15.7844 8.36693 15.538 8.469 15.281 8.469H4.05709L8.2169 12.6269C8.30697 12.7169 8.37842 12.8239 8.42717 12.9416C8.47591 13.0592 8.501 13.1854 8.501 13.3127C8.501 13.4401 8.47591 13.5663 8.42717 13.6839C8.37842 13.8016 8.30697 13.9086 8.2169 13.9986C8.12683 14.0887 8.0199 14.1601 7.90222 14.2089C7.78454 14.2576 7.65841 14.2827 7.53103 14.2827C7.40365 14.2827 7.27752 14.2576 7.15984 14.2089C7.04215 14.1601 6.93522 14.0887 6.84515 13.9986L1.03265 8.18612C0.942437 8.09613 0.87086 7.98923 0.822023 7.87154C0.773185 7.75384 0.748047 7.62767 0.748047 7.50025C0.748047 7.37282 0.773185 7.24665 0.822023 7.12896C0.87086 7.01126 0.942437 6.90436 1.03265 6.81437L6.84515 1.00187C7.02706 0.819967 7.27378 0.717773 7.53103 0.717773C7.78828 0.717773 8.035 0.819967 8.2169 1.00187C8.39881 1.18378 8.501 1.43049 8.501 1.68775C8.501 1.945 8.39881 2.19172 8.2169 2.37362L4.05709 6.5315H15.281C15.538 6.5315 15.7844 6.63356 15.966 6.81524C16.1477 6.99691 16.2498 7.24332 16.2498 7.50025Z" clip-rule="evenodd"/></svg>