<svg width="24" height="24" viewBox="0 0 24 24" fill="none" xmlns="http://www.w3.org/2000/svg">
<path d="M7.2 3.99908V5.59794H22.4V8.76292L20.625 14.3916H6.6966L4.6966 0H0V1.59885H3.3034L5.3034 15.9905H21.7984L24 9.00884V3.99908H7.2ZM8.0492 17.6046C7.2008 17.6055 6.38743 17.9428 5.78753 18.5422C5.18762 19.1417 4.85017 19.9545 4.8492 20.8023C4.8492 21.6504 5.18634 22.4637 5.78646 23.0634C6.38658 23.6631 7.20051 24 8.0492 24C8.89789 24 9.71183 23.6631 10.3119 23.0634C10.9121 22.4637 11.2492 21.6504 11.2492 20.8023C11.2482 19.9545 10.9108 19.1417 10.3109 18.5422C9.71098 17.9427 8.8976 17.6055 8.0492 17.6046ZM8.0492 22.4011C7.73275 22.4011 7.42341 22.3074 7.16029 22.1317C6.89717 21.956 6.69209 21.7063 6.57099 21.4141C6.44989 21.122 6.41821 20.8005 6.47994 20.4904C6.54168 20.1802 6.69407 19.8953 6.91783 19.6717C7.14159 19.4481 7.42669 19.2959 7.73706 19.2342C8.04743 19.1725 8.36913 19.2041 8.66149 19.3251C8.95386 19.4462 9.20374 19.6511 9.37955 19.914C9.55536 20.1769 9.6492 20.4861 9.6492 20.8023C9.6487 21.2262 9.47997 21.6326 9.18002 21.9323C8.88007 22.232 8.47339 22.4006 8.0492 22.4011ZM19.2492 17.6046C18.4008 17.6055 17.5874 17.9428 16.9875 18.5422C16.3876 19.1417 16.0502 19.9545 16.0492 20.8023C16.0492 21.6504 16.3863 22.4637 16.9865 23.0634C17.5866 23.6631 18.4005 24 19.2492 24C20.0979 24 20.9118 23.6631 21.5119 23.0634C22.1121 22.4637 22.4492 21.6504 22.4492 20.8023C22.4482 19.9545 22.1108 19.1417 21.5109 18.5422C20.911 17.9427 20.0976 17.6055 19.2492 17.6046ZM19.2492 22.4011C18.9328 22.4011 18.6234 22.3074 18.3603 22.1317C18.0972 21.956 17.8921 21.7063 17.771 21.4141C17.6499 21.122 17.6182 20.8005 17.6799 20.4904C17.7417 20.1802 17.8941 19.8953 18.1178 19.6717C18.3416 19.4481 18.6267 19.2959 18.9371 19.2342C19.2474 19.1725 19.5691 19.2041 19.8615 19.3251C20.1539 19.4462 20.4037 19.6511 20.5796 19.914C20.7554 20.1769 20.8492 20.4861 20.8492 20.8023C20.8487 21.2262 20.68 21.6326 20.38 21.9323C20.0801 22.232 19.6734 22.4006 19.2492 22.4011Z" fill="black"/>
</svg>
