<svg xmlns="http://www.w3.org/2000/svg" width="25" height="24" fill="none" viewBox="0 0 25 24"><path fill="#000" d="M12.5002 4.39686L11.3799 3.21767C8.7501 0.449676 3.92808 1.40487 2.1874 4.88486C1.37019 6.52166 1.18581 8.88485 2.67804 11.9008C4.11559 14.8048 7.1063 18.2832 12.5002 22.072C17.8941 18.2832 20.8833 14.8048 22.3224 11.9008C23.8146 8.88325 23.6318 6.52166 22.813 4.88486C21.0724 1.40487 16.2503 0.448076 13.6206 3.21607L12.5002 4.39686ZM12.5002 24C-11.4583 7.78885 5.12343 -4.86391 12.2252 1.82887C12.319 1.91687 12.4112 2.00807 12.5002 2.10247C12.5884 2.00816 12.6801 1.91742 12.7752 1.83047C19.8754 -4.86711 36.4588 7.78725 12.5002 24Z"/></svg>