<svg width="16" height="24" viewBox="0 0 16 24" fill="none" xmlns="http://www.w3.org/2000/svg">
<path d="M8 1.6C8.79113 1.6 9.56448 1.8346 10.2223 2.27412C10.8801 2.71365 11.3928 3.33836 11.6955 4.06927C11.9983 4.80017 12.0775 5.60444 11.9231 6.38036C11.7688 7.15629 11.3878 7.86902 10.8284 8.42843C10.269 8.98784 9.55629 9.3688 8.78036 9.52314C8.00444 9.67748 7.20017 9.59827 6.46927 9.29552C5.73836 8.99277 5.11365 8.48008 4.67412 7.82228C4.2346 7.16448 4 6.39113 4 5.6C4 4.53913 4.42143 3.52172 5.17157 2.77157C5.92172 2.02143 6.93913 1.6 8 1.6ZM8 0C6.89242 0 5.80972 0.328434 4.88881 0.94377C3.96789 1.55911 3.25013 2.43371 2.82627 3.45697C2.40242 4.48024 2.29153 5.60621 2.5076 6.69251C2.72368 7.7788 3.25703 8.77662 4.0402 9.5598C4.82338 10.343 5.8212 10.8763 6.90749 11.0924C7.99379 11.3085 9.11976 11.1976 10.143 10.7737C11.1663 10.3499 12.0409 9.63211 12.6562 8.71119C13.2716 7.79028 13.6 6.70758 13.6 5.6C13.6 4.11479 13.01 2.69041 11.9598 1.6402C10.9096 0.589998 9.48521 0 8 0ZM16 24H14.4V20C14.4 19.4747 14.2965 18.9546 14.0955 18.4693C13.8945 17.984 13.5999 17.543 13.2284 17.1716C12.857 16.8001 12.416 16.5055 11.9307 16.3045C11.4454 16.1035 10.9253 16 10.4 16H5.6C4.53913 16 3.52172 16.4214 2.77157 17.1716C2.02143 17.9217 1.6 18.9391 1.6 20V24H0V20C0 18.5148 0.589999 17.0904 1.6402 16.0402C2.69041 14.99 4.11479 14.4 5.6 14.4H10.4C11.8852 14.4 13.3096 14.99 14.3598 16.0402C15.41 17.0904 16 18.5148 16 20V24Z" fill="black"/>
</svg>
