<svg width="75" height="76" viewBox="0 0 75 76" fill="none" xmlns="http://www.w3.org/2000/svg">
<g clip-path="url(#clip0_42_1132)">
<rect x="21.8652" y="20.4307" width="33.2898" height="38.7693" fill="white"/>
<path d="M33.3312 73.0207C32.55 72.1457 31.6625 71.152 30.9875 71.0207C29.8966 71.0671 28.8386 71.4072 27.925 72.0051L27.9469 71.9895C26.8438 72.6381 25.6137 73.0411 24.3406 73.1707L24.3031 73.1738H24.2719C23.8783 73.1742 23.4885 73.0967 23.125 72.9457L23.1437 72.952C21.6094 72.3145 20.9875 70.5395 20.3937 68.8207C20.1557 67.7858 19.665 66.826 18.9656 66.0269L18.9719 66.0332C18.4315 65.7708 17.8294 65.6616 17.2312 65.7176H17.2437C16.7875 65.7176 16.3062 65.7457 15.825 65.7738C15.3062 65.8051 14.7875 65.8301 14.2937 65.8301C13.7008 65.886 13.1027 65.8242 12.5337 65.6483C11.9647 65.4724 11.4361 65.1859 10.9781 64.8051L10.9844 64.8113C10.4927 64.1103 10.1538 63.3139 9.9896 62.4735C9.82541 61.6332 9.8396 60.7677 10.0312 59.9332L10.025 59.9738C10.2081 58.9052 10.1178 57.8076 9.7625 56.7832L9.775 56.8301C8.99037 56.1403 8.0481 55.6541 7.03125 55.4145L6.9875 55.4051C5.26875 54.8082 3.4875 54.1895 2.85625 52.6551C2.67516 51.8275 2.66862 50.9713 2.83704 50.141C3.00545 49.3108 3.34513 48.5248 3.83437 47.8332L3.82187 47.852C4.39281 46.9355 4.72282 45.8895 4.78125 44.8113V44.7957C4.65 44.1176 3.65625 43.2332 2.78125 42.452C1.4125 41.2395 0 39.9801 0 38.2957C0 36.6113 1.4125 35.352 2.77812 34.1301C3.65312 33.3488 4.64687 32.4613 4.77812 31.7863C4.7147 30.6976 4.376 29.6428 3.79375 28.7207L3.80937 28.7457C3.32149 28.0488 2.98467 27.2577 2.82054 26.423C2.6564 25.5883 2.66856 24.7285 2.85625 23.8988L2.85 23.9395C3.4875 22.4051 5.2625 21.7832 6.98125 21.1895C8.0625 20.9363 9.00312 20.4395 9.775 19.7582L9.76875 19.7645C10.1211 18.7413 10.205 17.6449 10.0125 16.5801L10.0187 16.6176C9.83458 15.7847 9.82559 14.9226 9.99236 14.0861C10.1591 13.2495 10.498 12.4568 10.9875 11.7582L10.975 11.777C11.4353 11.3977 11.966 11.113 12.5366 10.9392C13.1071 10.7655 13.7064 10.7061 14.3 10.7645H14.2812C14.7812 10.7645 15.2969 10.7926 15.8125 10.8207C16.2937 10.8488 16.775 10.877 17.2312 10.877C17.832 10.932 18.4364 10.8206 18.9781 10.5551L18.9594 10.5645C19.6312 9.7957 20.1281 8.8582 20.3719 7.8207L20.3812 7.77695C20.9812 6.0582 21.6 4.27695 23.1312 3.6457C23.4892 3.49899 23.8726 3.42464 24.2594 3.42695H24.2937H24.2906C25.6531 3.56758 26.8906 3.98945 27.9812 4.6332L27.9375 4.61133C28.8397 5.20461 29.8867 5.54062 30.9656 5.5832H30.9781C31.6562 5.45195 32.5406 4.4582 33.3219 3.5832C34.5531 2.21133 35.8156 0.798828 37.5 0.798828C39.1844 0.798828 40.4437 2.21133 41.6656 3.58008C42.4469 4.45508 43.3344 5.44883 44.0094 5.58008C45.1 5.52973 46.1573 5.1888 47.0719 4.59258L47.0469 4.6082C48.1509 3.95964 49.3822 3.55773 50.6562 3.43008L50.6937 3.42695H50.725C51.1312 3.42695 51.5187 3.5082 51.8719 3.65508L51.8531 3.64883C53.3875 4.28633 54.0094 6.06133 54.6031 7.78008C54.8562 8.86133 55.3531 9.79883 56.0312 10.5738L56.025 10.5676C56.5666 10.8297 57.1701 10.9367 57.7687 10.877H57.7562C58.2125 10.877 58.6937 10.8488 59.175 10.8238C59.6937 10.7957 60.2125 10.7676 60.7062 10.7676C61.2996 10.7121 61.8981 10.7741 62.4676 10.9499C63.037 11.1258 63.5662 11.4121 64.025 11.7926L64.0187 11.7863C64.5088 12.4881 64.8465 13.2847 65.0102 14.1248C65.1738 14.965 65.1597 15.8301 64.9688 16.6645L64.975 16.6238C64.7914 17.6927 64.8828 18.7907 65.2406 19.8145L65.2281 19.7707C65.9937 20.4457 66.9344 20.9426 67.9719 21.1832L68.0156 21.1926C69.7344 21.7926 71.5156 22.4113 72.1469 23.9426C72.3261 24.7701 72.332 25.6257 72.1642 26.4556C71.9964 27.2855 71.6585 28.0716 71.1719 28.7645L71.1844 28.7457C70.6119 29.6552 70.2787 30.6947 70.2156 31.7676V31.7863C70.3469 32.4645 71.3406 33.3488 72.2156 34.1301C73.5937 35.3582 75.0062 36.6176 75.0062 38.302C75.0062 39.9863 73.5937 41.2488 72.225 42.4707C71.35 43.252 70.3562 44.1363 70.225 44.8145C70.2937 45.9488 70.6469 46.9895 71.2094 47.8832L71.1937 47.8551C71.6817 48.5513 72.0186 49.3419 72.1828 50.1761C72.3469 51.0103 72.3347 51.8696 72.1469 52.6988L72.1531 52.6582C71.5187 54.1957 69.7406 54.8145 68.0219 55.4082C66.9863 55.6462 66.0263 56.1381 65.2281 56.8395L65.2344 56.8332C64.8821 57.8563 64.7981 58.9527 64.9906 60.0176L64.9844 59.9801C65.1681 60.8125 65.1768 61.674 65.0101 62.51C64.8433 63.3459 64.5047 64.1381 64.0156 64.8363L64.0281 64.8176C63.5687 65.1976 63.0387 65.4832 62.4687 65.658C61.8987 65.8328 61.2997 65.8934 60.7062 65.8363H60.725C60.225 65.8363 59.7094 65.8082 59.1937 65.7801C58.7215 65.7478 58.2484 65.729 57.775 65.7238C57.1742 65.6676 56.5695 65.7791 56.0281 66.0457L56.0469 66.0363C55.3592 66.8219 54.8742 67.7639 54.6344 68.7801L54.625 68.8238C54.025 70.5426 53.4062 72.3238 51.875 72.9551C51.5171 73.1018 51.1337 73.1761 50.7469 73.1738H50.7125H50.7156C49.4131 73.044 48.1546 72.6312 47.0281 71.9645L47.0687 71.9863C46.1669 71.3927 45.1196 71.0576 44.0406 71.0176H44.0281C43.35 71.1488 42.4656 72.1426 41.6844 73.0176C40.45 74.3863 39.1906 75.7988 37.5031 75.7988C35.8156 75.7988 34.5594 74.3863 33.3344 73.0207H33.3312ZM44.3687 23.6395L29.1187 51.352C29.0754 51.4308 29.0532 51.5197 29.0546 51.6097C29.0559 51.6997 29.0807 51.7878 29.1264 51.8654C29.1721 51.9429 29.2372 52.0073 29.3153 52.052C29.3934 52.0968 29.4818 52.1205 29.5719 52.1207H32.2188C32.3107 52.1209 32.401 52.0963 32.4801 52.0495C32.5593 52.0028 32.6245 51.9356 32.6688 51.8551V51.852L47.8969 24.1363C47.9403 24.0574 47.9624 23.9686 47.961 23.8786C47.9597 23.7886 47.9349 23.7005 47.8892 23.6229C47.8435 23.5454 47.7784 23.481 47.7003 23.4363C47.6222 23.3915 47.5338 23.3678 47.4437 23.3676H44.8219C44.7292 23.3678 44.6383 23.3929 44.5587 23.4401C44.479 23.4874 44.4134 23.5552 44.3687 23.6363V23.6395ZM42.1687 37.8551C41.7716 38.1834 41.452 38.5954 41.2327 39.0616C41.0133 39.5278 40.8997 40.0367 40.9 40.552V48.0551C40.9 49.1301 41.3937 50.0895 42.1656 50.7207L42.1719 50.727C42.9719 51.3957 44.0094 51.7988 45.1437 51.7988C46.2781 51.7988 47.3156 51.3926 48.1219 50.7207L48.1156 50.727C48.8969 50.0926 49.3906 49.1332 49.3906 48.0582V40.5582C49.3906 39.4832 48.9062 38.5176 48.1469 37.8738L48.1406 37.8707C47.3486 37.159 46.321 36.766 45.2562 36.7676H45.1594H45.1656H45.0687C44.001 36.7661 42.9696 37.1551 42.1687 37.8613L42.175 37.8582L42.1687 37.8551ZM28.9062 24.3957C28.5091 24.724 28.1895 25.136 27.9702 25.6022C27.7508 26.0684 27.6372 26.5773 27.6375 27.0926V34.5926C27.6375 35.6707 28.1281 36.6363 28.9031 37.2707L28.9094 37.277C29.7094 37.9551 30.75 38.3645 31.8875 38.3645C33.025 38.3645 34.0687 37.952 34.8719 37.2707L34.8656 37.277C35.6531 36.6363 36.15 35.6707 36.15 34.5863V27.1051C36.15 26.0207 35.6594 25.0551 34.8844 24.4113L34.8781 24.4082C34.0436 23.6974 32.9831 23.3073 31.8869 23.3079C30.7907 23.3085 29.7306 23.6997 28.8969 24.4113L28.9031 24.4051L28.9062 24.3957ZM44.4625 48.4613C44.3953 48.4078 44.341 48.3399 44.3037 48.2625C44.2664 48.1851 44.2469 48.1004 44.2469 48.0145V40.5113C44.2469 40.3301 44.3312 40.1707 44.4594 40.0676C44.6216 39.9268 44.829 39.8492 45.0437 39.8488H45.0844H45.0812H45.1187C45.334 39.8487 45.5422 39.9251 45.7062 40.0645C45.773 40.1176 45.8271 40.1851 45.8644 40.2619C45.9017 40.3387 45.9213 40.4228 45.9219 40.5082V48.0145C45.9219 48.0996 45.9029 48.1837 45.8661 48.2605C45.8293 48.3373 45.7758 48.4049 45.7094 48.4582C45.5406 48.5957 45.3219 48.677 45.0844 48.677C44.8469 48.677 44.6281 48.5957 44.4562 48.4551H44.4594L44.4625 48.4613ZM31.2125 35.0051C31.1456 34.9513 31.0916 34.8832 31.0543 34.8059C31.017 34.7287 30.9974 34.644 30.9969 34.5582V27.0582C30.9969 26.877 31.0812 26.7176 31.2094 26.6113C31.3781 26.4738 31.5969 26.3926 31.8344 26.3926C32.0719 26.3926 32.2906 26.4738 32.4625 26.6145H32.4594C32.5266 26.668 32.5808 26.7359 32.6182 26.8133C32.6555 26.8906 32.6749 26.9754 32.675 27.0613V34.5645C32.6749 34.65 32.6557 34.7345 32.619 34.8118C32.5822 34.8891 32.5288 34.9572 32.4625 35.0113C32.2937 35.1488 32.075 35.2301 31.8375 35.2301C31.6 35.2301 31.3812 35.1488 31.2094 35.0082H31.2125V35.0051Z" fill="#FF0000"/>
</g>
<defs>
<clipPath id="clip0_42_1132">
<rect width="75" height="75" fill="white" transform="translate(0 0.798828)"/>
</clipPath>
</defs>
</svg>
