<svg width="22" height="22" viewBox="0 0 22 22" fill="none" xmlns="http://www.w3.org/2000/svg">
<path d="M17.875 8.9375C17.875 10.9098 17.2348 12.7316 16.1563 14.2098L21.5961 19.6539C22.1332 20.191 22.1332 21.0633 21.5961 21.6004C21.059 22.1375 20.1867 22.1375 19.6496 21.6004L14.2098 16.1562C12.7316 17.2391 10.9098 17.875 8.9375 17.875C4.00039 17.875 0 13.8746 0 8.9375C0 4.00039 4.00039 0 8.9375 0C13.8746 0 17.875 4.00039 17.875 8.9375ZM8.9375 15.125C12.3535 15.125 15.125 12.3535 15.125 8.9375C15.125 5.52148 12.3535 2.75 8.9375 2.75C5.52148 2.75 2.75 5.52148 2.75 8.9375C2.75 12.3535 5.52148 15.125 8.9375 15.125Z" fill="black"/>
</svg>
