<svg xmlns="http://www.w3.org/2000/svg" width="10" height="10" fill="none" viewBox="0 0 10 10"><path fill="#3552DC" d="M0.806664 0.80764C0.864721 0.749436 0.93369 0.703258 1.00962 0.671749C1.08555 0.640241 1.16695 0.624023 1.24916 0.624023C1.33137 0.624023 1.41277 0.640241 1.48871 0.671749C1.56464 0.703258 1.63361 0.749436 1.69166 0.80764L4.99916 4.11639L8.30666 0.80764C8.36477 0.74953 8.43376 0.703435 8.50968 0.671986C8.58561 0.640537 8.66698 0.624351 8.74916 0.624351C8.83134 0.624351 8.91272 0.640537 8.98864 0.671986C9.06457 0.703435 9.13355 0.74953 9.19166 0.80764C9.24977 0.86575 9.29587 0.934737 9.32732 1.01066C9.35877 1.08659 9.37495 1.16796 9.37495 1.25014C9.37495 1.33232 9.35877 1.4137 9.32732 1.48962C9.29587 1.56554 9.24977 1.63453 9.19166 1.69264L5.88291 5.00014L9.19166 8.30764C9.24977 8.36575 9.29587 8.43474 9.32732 8.51066C9.35877 8.58659 9.37495 8.66796 9.37495 8.75014C9.37495 8.83232 9.35877 8.9137 9.32732 8.98962C9.29587 9.06554 9.24977 9.13453 9.19166 9.19264C9.13355 9.25075 9.06457 9.29685 8.98864 9.32829C8.91272 9.35974 8.83134 9.37593 8.74916 9.37593C8.66698 9.37593 8.58561 9.35974 8.50968 9.32829C8.43376 9.29685 8.36477 9.25075 8.30666 9.19264L4.99916 5.88389L1.69166 9.19264C1.63355 9.25075 1.56457 9.29685 1.48864 9.32829C1.41272 9.35974 1.33134 9.37593 1.24916 9.37593C1.16698 9.37593 1.08561 9.35974 1.00968 9.32829C0.93376 9.29685 0.864774 9.25075 0.806664 9.19264C0.748554 9.13453 0.702458 9.06554 0.67101 8.98962C0.639561 8.9137 0.623374 8.83232 0.623374 8.75014C0.623374 8.66796 0.639561 8.58659 0.67101 8.51066C0.702458 8.43474 0.748554 8.36575 0.806664 8.30764L4.11541 5.00014L0.806664 1.69264C0.74846 1.63458 0.702281 1.56561 0.670773 1.48968C0.639265 1.41375 0.623047 1.33235 0.623047 1.25014C0.623047 1.16793 0.639265 1.08653 0.670773 1.0106C0.702281 0.934667 0.74846 0.865697 0.806664 0.80764Z"/></svg>